<svg width="32" height="32" viewBox="0 0 32 32" fill="none" xmlns="http://www.w3.org/2000/svg">
<path opacity="0.5" fill-rule="evenodd" clip-rule="evenodd" d="M4.33336 29.3337C4.33336 28.7815 4.78108 28.3337 5.33337 28.3337H26.6667C27.219 28.3337 27.6667 28.7815 27.6667 29.3337C27.6667 29.886 27.219 30.3337 26.6667 30.3337H5.33337C4.78108 30.3337 4.33336 29.886 4.33336 29.3337Z" fill="white"/>
<path opacity="0.5" d="M25.441 9.82922C27.0794 8.19077 27.0794 5.53433 25.441 3.89588C23.8025 2.25743 21.1461 2.25743 19.5076 3.89588L18.5613 4.84226C18.5742 4.8814 18.5877 4.92107 18.6016 4.96126C18.9485 5.9611 19.603 7.2718 20.8342 8.50302C22.0654 9.73424 23.3761 10.3887 24.376 10.7356C24.416 10.7495 24.4555 10.7629 24.4944 10.7758L25.441 9.82922Z" fill="white"/>
<path d="M18.6016 4.79915L18.5608 4.8399C18.5738 4.87903 18.5872 4.91871 18.6012 4.9589C18.9481 5.95874 19.6026 7.26944 20.8338 8.50066C22.065 9.73188 23.3757 10.3864 24.3756 10.7333C24.4152 10.747 24.4544 10.7603 24.493 10.7731L15.3598 19.9063C14.7441 20.522 14.4362 20.8299 14.0967 21.0947C13.6962 21.4071 13.2629 21.6749 12.8045 21.8933C12.4158 22.0786 12.0027 22.2163 11.1766 22.4916L6.82006 23.9438C6.4135 24.0793 5.96527 23.9735 5.66225 23.6705C5.35922 23.3675 5.25341 22.9192 5.38892 22.5127L6.8411 18.1562C7.11648 17.33 7.25417 16.9169 7.4394 16.5283C7.65789 16.0698 7.92568 15.6365 8.23803 15.2361C8.50281 14.8966 8.81069 14.5887 9.4264 13.973L18.6016 4.79915Z" fill="white"/>
</svg>
