<svg width="19" height="19" viewBox="0 0 19 19" fill="none" xmlns="http://www.w3.org/2000/svg">
<g clip-path="url(#clip0_1_145)">
<path fill-rule="evenodd" clip-rule="evenodd" d="M9.50001 2.17684C5.45567 2.17684 2.17709 5.45542 2.17709 9.49975C2.17709 13.5441 5.45567 16.8227 9.50001 16.8227C13.5443 16.8227 16.8229 13.5441 16.8229 9.49975C16.8229 5.45542 13.5443 2.17684 9.50001 2.17684ZM0.989589 9.49975C0.989589 4.79958 4.79983 0.989336 9.50001 0.989336C14.2002 0.989336 18.0104 4.79958 18.0104 9.49975C18.0104 14.1999 14.2002 18.0102 9.50001 18.0102C4.79983 18.0102 0.989589 14.1999 0.989589 9.49975ZM6.64801 12.3129C6.84328 12.0494 7.21513 11.9941 7.47857 12.1894C8.05518 12.6168 8.75117 12.8643 9.50001 12.8643C10.2488 12.8643 10.9448 12.6168 11.5214 12.1894C11.7849 11.9941 12.1567 12.0494 12.352 12.3129C12.5473 12.5763 12.492 12.9481 12.2286 13.1434C11.4587 13.714 10.5173 14.0518 9.50001 14.0518C8.48274 14.0518 7.54126 13.714 6.77144 13.1434C6.508 12.9481 6.45274 12.5763 6.64801 12.3129Z" fill="#1C274C"/>
<path d="M12.6667 8.31225C12.6667 8.96809 12.3122 9.49975 11.875 9.49975C11.4378 9.49975 11.0833 8.96809 11.0833 8.31225C11.0833 7.65642 11.4378 7.12475 11.875 7.12475C12.3122 7.12475 12.6667 7.65642 12.6667 8.31225Z" fill="#1C274C"/>
<path d="M7.91667 8.31225C7.91667 8.96809 7.56223 9.49975 7.12501 9.49975C6.68778 9.49975 6.33334 8.96809 6.33334 8.31225C6.33334 7.65642 6.68778 7.12475 7.12501 7.12475C7.56223 7.12475 7.91667 7.65642 7.91667 8.31225Z" fill="#1C274C"/>
</g>
<defs>
<clipPath id="clip0_1_145">
<rect width="18.3761" height="18.3761" fill="white" transform="scale(1.03395)"/>
</clipPath>
</defs>
</svg>
