<svg width="120" height="132" viewBox="0 0 120 132" fill="none" xmlns="http://www.w3.org/2000/svg">
<path d="M64.4651 47.5814C64.4651 45.0383 62.4036 42.9768 59.8605 42.9768C57.3174 42.9768 55.2558 45.0383 55.2558 47.5814L55.2558 61.3955H41.4419C38.8988 61.3955 36.8372 63.4571 36.8372 66.0002C36.8372 68.5432 38.8988 70.6048 41.4419 70.6048H55.2558V84.4186C55.2558 86.9617 57.3174 89.0233 59.8605 89.0233C62.4036 89.0233 64.4651 86.9617 64.4651 84.4186V70.6048H78.2791C80.8222 70.6048 82.8837 68.5432 82.8837 66.0002C82.8837 63.4571 80.8222 61.3955 78.2791 61.3955H64.4651L64.4651 47.5814Z" fill="#FFEAD1"/>
<path fill-rule="evenodd" clip-rule="evenodd" d="M59.8605 0C54.1045 0 48.6087 1.88228 39.7436 4.91848L35.2775 6.44735C26.1828 9.56048 19.164 11.963 14.1395 14.0042C11.6085 15.0324 9.43258 16.0283 7.68045 17.0458C5.99429 18.0251 4.30272 19.2465 3.15346 20.8839C2.01748 22.5024 1.43011 24.4921 1.061 26.4075C0.677264 28.3988 0.445877 30.7875 0.296532 33.5302C0 38.976 0 46.4364 0 56.1131V65.947C0 103.405 28.2912 121.363 45.1154 128.713L45.2817 128.785C47.3679 129.697 49.3288 130.554 51.5819 131.131C53.9608 131.74 56.4883 132 59.8605 132C63.2327 132 65.7602 131.74 68.139 131.131C70.3921 130.554 72.3529 129.697 74.439 128.785L74.6056 128.713C91.4298 121.363 119.721 103.405 119.721 65.947V56.1142C119.721 46.437 119.721 38.9762 119.424 33.5302C119.275 30.7875 119.044 28.3988 118.66 26.4075C118.291 24.4921 117.703 22.5024 116.567 20.8839C115.418 19.2465 113.727 18.0251 112.041 17.0458C110.288 16.0283 108.112 15.0324 105.581 14.0042C100.557 11.963 93.5381 9.56046 84.4434 6.44733L79.9774 4.91849C71.1123 1.88228 65.6164 0 59.8605 0ZM41.9368 13.9017C51.8493 10.5087 55.8223 9.2093 59.8605 9.2093C63.8987 9.2093 67.8717 10.5087 77.7842 13.9017L81.301 15.1055C90.5876 18.2844 97.3602 20.6046 102.115 22.5363C104.489 23.5005 106.208 24.3086 107.416 25.0096C108.012 25.3557 108.422 25.6413 108.696 25.8642C108.929 26.053 109.017 26.1601 109.03 26.1758C109.042 26.1949 109.118 26.3224 109.226 26.6243C109.349 26.9688 109.485 27.4627 109.617 28.1501C109.885 29.5416 110.088 31.4529 110.229 34.0309C110.51 39.1955 110.512 46.4047 110.512 56.279V65.947C110.512 97.7197 86.7523 113.357 70.9191 120.273C68.6384 121.27 67.3213 121.834 65.8551 122.209C64.4548 122.567 62.7461 122.791 59.8605 122.791C56.9749 122.791 55.2661 122.567 53.8658 122.209C52.3996 121.834 51.0826 121.27 48.8019 120.273C32.9687 113.357 9.2093 97.7197 9.2093 65.947V56.279C9.2093 46.4047 9.211 39.1955 9.49221 34.0309C9.63259 31.4529 9.83579 29.5416 10.1039 28.1501C10.2364 27.4627 10.3724 26.9688 10.4951 26.6243C10.6025 26.3227 10.6789 26.1951 10.6907 26.1758C10.7034 26.1602 10.7921 26.0532 11.0246 25.8642C11.2988 25.6413 11.7095 25.3557 12.3054 25.0096C13.5125 24.3086 15.2322 23.5005 17.6057 22.5363C22.3608 20.6046 29.1334 18.2844 38.42 15.1055L41.9368 13.9017Z" fill="#FFEAD1"/>
</svg>
