<svg width="51" height="51" viewBox="0 0 51 51" fill="none" xmlns="http://www.w3.org/2000/svg">
<path fill-rule="evenodd" clip-rule="evenodd" d="M19.6563 8.49991C19.6563 5.2725 22.2726 2.65616 25.5 2.65616C28.7275 2.65616 31.3438 5.2725 31.3438 8.49991C31.3438 11.7273 28.7275 14.3437 25.5 14.3437C22.2726 14.3437 19.6563 11.7273 19.6563 8.49991Z" fill="#FBE4A7"/>
<path d="M17.4741 24.5962L12.8516 23.0554C11.5219 22.6121 10.625 21.3678 10.625 19.9662C10.625 17.8931 12.5365 16.3478 14.5636 16.7822L18.5959 17.6462C18.8202 17.6943 18.9323 17.7183 19.0434 17.7413C23.3027 18.6223 27.6973 18.6223 31.9566 17.7413C32.0678 17.7183 32.1799 17.6943 32.4041 17.6462L36.4364 16.7822C38.4635 16.3478 40.375 17.8931 40.375 19.9662C40.375 21.3678 39.4781 22.6121 38.1485 23.0554L33.526 24.5962C32.9673 24.7824 32.688 24.8755 32.478 25.0052C31.7627 25.4467 31.3749 26.2684 31.4888 27.1013C31.5222 27.3459 31.6279 27.6207 31.8393 28.1703L34.4887 35.0588C35.2774 37.1093 33.7638 39.3132 31.5668 39.3132C30.4433 39.3132 29.406 38.7112 28.8486 37.7358L25.5 31.8757L22.1514 37.7358C21.594 38.7112 20.5567 39.3132 19.4333 39.3132C17.2363 39.3132 15.7227 37.1093 16.5113 35.0588L19.1608 28.1703C19.3721 27.6207 19.4778 27.3459 19.5113 27.1013C19.6252 26.2684 19.2374 25.4467 18.522 25.0052C18.312 24.8755 18.0327 24.7824 17.4741 24.5962Z" fill="#FBE4A7"/>
<path d="M25.5 46.7507C37.2361 46.7507 46.75 42.4694 46.75 37.1882C46.75 33.5292 42.1833 30.3502 35.4747 28.7424L37.4638 33.9139C39.0554 38.0523 36.0007 42.5001 31.5668 42.5001C29.2995 42.5001 27.206 41.2852 26.0811 39.3167L25.5 38.2997L24.9189 39.3167C23.794 41.2852 21.7006 42.5001 19.4333 42.5001C14.9993 42.5001 11.9446 38.0523 13.5363 33.9139L15.5253 28.7424C8.81678 30.3502 4.25002 33.5292 4.25002 37.1882C4.25002 42.4694 13.764 46.7507 25.5 46.7507Z" fill="#FBE4A7"/>
</svg>
