<svg width="35" height="35" viewBox="0 0 35 35" fill="none" xmlns="http://www.w3.org/2000/svg">
<path fill-rule="evenodd" clip-rule="evenodd" d="M17.5 12.0309C14.4797 12.0309 12.0312 14.4794 12.0312 17.4997C12.0312 20.52 14.4797 22.9684 17.5 22.9684C20.5203 22.9684 22.9687 20.52 22.9687 17.4997C22.9687 14.4794 20.5203 12.0309 17.5 12.0309ZM14.2187 17.4997C14.2187 15.6875 15.6878 14.2184 17.5 14.2184C19.3122 14.2184 20.7812 15.6875 20.7812 17.4997C20.7812 19.3119 19.3122 20.7809 17.5 20.7809C15.6878 20.7809 14.2187 19.3119 14.2187 17.4997Z" fill="#1C274C"/>
<path fill-rule="evenodd" clip-rule="evenodd" d="M17.5 1.82259C16.4725 1.82259 15.5339 2.10491 14.5083 2.58146C13.5159 3.04257 12.3672 3.72285 10.9296 4.57425L9.83131 5.22464C8.39317 6.07629 7.24456 6.75649 6.35943 7.40719C5.44415 8.08006 4.74214 8.76879 4.23403 9.67152C3.72672 10.5728 3.49767 11.5365 3.38777 12.68C3.28121 13.7888 3.28122 15.1467 3.28123 16.8522V18.1472C3.28122 19.8527 3.28121 21.2106 3.38777 22.3194C3.49767 23.4629 3.72672 24.4265 4.23403 25.3278C4.74214 26.2306 5.44415 26.9193 6.35943 27.5922C7.24456 28.2429 8.39317 28.9231 9.83131 29.7747L10.9296 30.4251C12.3672 31.2765 13.516 31.9568 14.5083 32.4179C15.5339 32.8944 16.4725 33.1768 17.5 33.1768C18.5275 33.1768 19.466 32.8944 20.4916 32.4179C21.484 31.9568 22.6327 31.2765 24.0704 30.4251L25.1686 29.7747C26.6067 28.9231 27.7554 28.2429 28.6405 27.5922C29.5558 26.9193 30.2578 26.2306 30.7659 25.3278C31.2732 24.4265 31.5023 23.4629 31.6122 22.3194C31.7187 21.2106 31.7187 19.8527 31.7187 18.1472V16.8522C31.7187 15.1467 31.7187 13.7888 31.6122 12.68C31.5023 11.5365 31.2732 10.5728 30.7659 9.67152C30.2578 8.76879 29.5558 8.08006 28.6405 7.40719C27.7554 6.75649 26.6068 6.0763 25.1687 5.22466L24.0704 4.57425C22.6327 3.72285 21.484 3.04257 20.4916 2.58146C19.466 2.10491 18.5275 1.82259 17.5 1.82259ZM11.9951 6.48553C13.493 5.59846 14.5484 4.97495 15.4301 4.56527C16.2899 4.16578 16.9031 4.01009 17.5 4.01009C18.0968 4.01009 18.7101 4.16578 19.5699 4.56527C20.4516 4.97495 21.5069 5.59846 23.0048 6.48553L24.0055 7.07811C25.5032 7.96505 26.5576 8.59093 27.3448 9.16968C28.1119 9.73357 28.5556 10.2043 28.8597 10.7445C29.1645 11.2861 29.3416 11.9199 29.4347 12.8892C29.5301 13.8813 29.5312 15.1343 29.5312 16.9071V18.0923C29.5312 19.8651 29.5301 21.118 29.4347 22.1101C29.3416 23.0794 29.1645 23.7132 28.8597 24.2548C28.5556 24.795 28.1119 25.2658 27.3448 25.8297C26.5576 26.4084 25.5032 27.0343 24.0055 27.9212L23.0048 28.5138C21.5069 29.4009 20.4516 30.0244 19.5699 30.4341C18.7101 30.8336 18.0968 30.9893 17.5 30.9893C16.9031 30.9893 16.2899 30.8336 15.4301 30.4341C14.5484 30.0244 13.493 29.4009 11.9951 28.5138L10.9945 27.9212C9.49679 27.0343 8.44237 26.4084 7.65512 25.8297C6.88807 25.2658 6.44436 24.795 6.1403 24.2548C5.83543 23.7132 5.65839 23.0794 5.56524 22.1101C5.4699 21.118 5.46873 19.8651 5.46873 18.0923V16.9071C5.46873 15.1343 5.4699 13.8813 5.56524 12.8892C5.65839 11.9199 5.83543 11.2861 6.1403 10.7445C6.44436 10.2043 6.88807 9.73357 7.65512 9.16968C8.44237 8.59093 9.49679 7.96505 10.9945 7.07811L11.9951 6.48553Z" fill="#1C274C"/>
</svg>
