<svg width="45" height="45" viewBox="0 0 45 45" fill="none" xmlns="http://www.w3.org/2000/svg">
<path fill-rule="evenodd" clip-rule="evenodd" d="M22.5 0C23.3669 0 24.0697 0.702807 24.0697 1.56976V2.09602C24.3025 2.09954 24.501 2.10714 24.6863 2.12353C28.475 2.45856 31.4783 5.4618 31.8133 9.25047C31.8439 9.59674 31.8439 9.98906 31.8438 10.5652L31.8438 13.1253C31.8438 21.2238 25.6818 27.883 17.7907 28.6703V32.9652C17.7907 37.8779 21.7732 41.8605 26.686 41.8605H28.5328C31.1494 41.8605 33.4354 40.4339 34.6514 38.3144C31.5422 37.2705 29.3023 34.3329 29.3023 30.872C29.3023 26.5372 32.8163 23.0232 37.1511 23.0232C41.4859 23.0232 44.9999 26.5372 44.9999 30.872C44.9999 34.9335 41.915 38.2744 37.9606 38.6796C36.4378 42.3874 32.7921 45 28.5328 45H26.686C20.0393 45 14.6511 39.6118 14.6511 32.9652V28.6732C6.42913 27.8837 1.17609e-05 20.9563 1.17609e-05 12.5273L5.77276e-06 10.5654C-5.86001e-05 9.98912 -0.00010239 9.59677 0.0305206 9.25047C0.365549 5.4618 3.3688 2.45856 7.15747 2.12353C7.4833 2.09471 7.84989 2.09305 8.37209 2.09301V1.56976C8.37209 0.702807 9.07489 0 9.94185 0C10.8088 0 11.5116 0.702807 11.5116 1.56976V5.7558C11.5116 6.62276 10.8088 7.32557 9.94185 7.32557C9.07489 7.32557 8.37209 6.62276 8.37209 5.7558V5.2326C7.82077 5.23297 7.60588 5.23565 7.43401 5.25085C5.16081 5.45187 3.35886 7.25382 3.15784 9.52702C3.14108 9.71663 3.13954 9.95862 3.13954 10.647V12.5273C3.13954 19.752 8.99627 25.6087 16.2209 25.6087C23.1153 25.6087 28.7043 20.0197 28.7043 13.1253V10.647C28.7043 9.95862 28.7027 9.71663 28.686 9.52702C28.4849 7.25382 26.683 5.45187 24.4098 5.25085C24.3212 5.24302 24.2213 5.23851 24.0697 5.23593V5.7558C24.0697 6.62276 23.3669 7.32557 22.5 7.32557C21.633 7.32557 20.9302 6.62276 20.9302 5.7558V1.56976C20.9302 0.702807 21.633 0 22.5 0ZM32.4418 30.872C32.4418 28.2712 34.5502 26.1627 37.1511 26.1627C39.752 26.1627 41.8604 28.2712 41.8604 30.872C41.8604 33.4729 39.752 35.5813 37.1511 35.5813C34.5502 35.5813 32.4418 33.4729 32.4418 30.872Z" fill="#1C274C"/>
</svg>
