<svg width="47" height="35" viewBox="0 0 47 35" fill="none" xmlns="http://www.w3.org/2000/svg">
<path fill-rule="evenodd" clip-rule="evenodd" d="M9.63707 0.429311C10.742 0.0515605 11.8644 0 12.794 0H14.1329C16.3906 0 18.5927 0.675144 20.4357 1.93234L21.5328 2.68083C22.108 3.07322 22.7954 3.28394 23.5 3.28394C24.2047 3.28394 24.892 3.07321 25.4672 2.68081L26.5644 1.93235C28.4072 0.675148 30.6094 0 32.8671 0H34.206C35.1356 0 36.258 0.0515604 37.3629 0.429305C40.5179 1.50792 43.0131 3.98663 44.6564 7.9971C46.2828 11.9662 47.1179 17.5197 46.9865 25.0025C46.9588 26.5819 46.7544 28.3519 46.1245 29.9462C45.4862 31.5614 44.3713 33.0839 42.4953 33.9487C41.428 34.4406 40.1701 34.7687 38.7439 34.7687C37.0237 34.7687 35.6088 34.2911 34.4985 33.5897C33.4657 32.9371 32.5626 32.0936 31.7911 31.3729C31.6972 31.2852 31.6052 31.1992 31.5151 31.1157C30.6301 30.2945 29.8859 29.6537 29.0602 29.2409C28.0168 28.7194 26.8588 28.4471 25.6835 28.4471H21.3165C20.1412 28.4471 18.9831 28.7194 17.9398 29.2409C17.1141 29.6537 16.3699 30.2945 15.4849 31.1157C15.3948 31.1992 15.3028 31.2852 15.2089 31.3729C14.4374 32.0936 13.5343 32.9371 12.5015 33.5897C11.3912 34.2911 9.9763 34.7687 8.25607 34.7687C6.82988 34.7687 5.57194 34.4407 4.5047 33.9487C2.62867 33.0839 1.51374 31.5614 0.875488 29.9462C0.245532 28.3519 0.041157 26.5819 0.0134394 25.0025C-0.117885 17.5197 0.71721 11.9663 2.34359 7.99711C3.98691 3.98664 6.48206 1.50793 9.63707 0.429311ZM12.794 3.16079C11.9564 3.16079 11.2937 3.21664 10.7332 3.40829C8.67948 4.11039 6.77887 5.777 5.39338 9.15825C3.99096 12.5808 3.16421 17.6655 3.29204 24.9491C3.31653 26.3449 3.49938 27.7065 3.9398 28.8211C4.37192 29.9147 5.01054 30.6782 5.91938 31.0972C6.58778 31.4053 7.36486 31.6079 8.25607 31.6079C9.31656 31.6079 10.1099 31.3214 10.704 30.9461C11.4598 30.4686 12.1316 29.8431 12.9386 29.0917C13.0276 29.0088 13.1183 28.9244 13.2109 28.8384C14.0874 28.0252 15.1355 27.0821 16.4303 26.4349C17.94 25.6803 19.6158 25.2863 21.3165 25.2863H25.6835C27.3842 25.2863 29.06 25.6803 30.5697 26.4349C31.8645 27.0821 32.9126 28.0252 33.7891 28.8384C33.8817 28.9244 33.9724 29.0088 34.0614 29.0917C34.8684 29.8431 35.5401 30.4685 36.296 30.9461C36.8901 31.3214 37.6834 31.6079 38.7439 31.6079C39.6351 31.6079 40.4122 31.4053 41.0806 31.0972C41.9894 30.6782 42.6281 29.9147 43.0602 28.8211C43.5006 27.7065 43.6834 26.3449 43.7079 24.9491C43.8358 17.6655 43.009 12.5808 41.6066 9.15824C40.2211 5.77699 38.3205 4.11038 36.2668 3.40828C35.7062 3.21664 35.0436 3.16079 34.206 3.16079H32.8671C31.2879 3.16079 29.7476 3.63302 28.4586 4.51238L27.3615 5.26083C26.2324 6.03109 24.8833 6.44473 23.5 6.44473C22.1168 6.44473 20.7677 6.0311 19.6386 5.26087L18.5414 4.51239C17.2524 3.63303 15.7121 3.16079 14.1329 3.16079H12.794ZM13.6628 10.536C14.5683 10.536 15.3023 11.2435 15.3023 12.1164V13.6968H16.9419C17.8473 13.6968 18.5814 14.4043 18.5814 15.2772C18.5814 16.15 17.8473 16.8576 16.9419 16.8576H15.3023V18.438C15.3023 19.3108 14.5683 20.0183 13.6628 20.0183C12.7573 20.0183 12.0233 19.3108 12.0233 18.438V16.8576H10.3837C9.47823 16.8576 8.74419 16.15 8.74419 15.2772C8.74419 14.4043 9.47823 13.6968 10.3837 13.6968H12.0233V12.1164C12.0233 11.2435 12.7573 10.536 13.6628 10.536Z" fill="#1C274D"/>
<path d="M38.8023 14.7504C38.8023 15.6232 38.0683 16.3308 37.1628 16.3308C36.2573 16.3308 35.5232 15.6232 35.5232 14.7504C35.5232 13.8775 36.2573 13.17 37.1628 13.17C38.0683 13.17 38.8023 13.8775 38.8023 14.7504Z" fill="#1C274D"/>
<path d="M32.2442 14.7504C32.2442 15.6232 31.5101 16.3308 30.6046 16.3308C29.6991 16.3308 28.9651 15.6232 28.9651 14.7504C28.9651 13.8775 29.6991 13.17 30.6046 13.17C31.5101 13.17 32.2442 13.8775 32.2442 14.7504Z" fill="#1C274D"/>
<path d="M33.8837 10.0092C34.7892 10.0092 35.5232 10.7167 35.5232 11.5896C35.5232 12.4624 34.7892 13.17 33.8837 13.17C32.9782 13.17 32.2442 12.4624 32.2442 11.5896C32.2442 10.7167 32.9782 10.0092 33.8837 10.0092Z" fill="#1C274D"/>
<path d="M33.8837 16.3308C34.7892 16.3308 35.5232 17.0383 35.5232 17.9112C35.5232 18.784 34.7892 19.4915 33.8837 19.4915C32.9782 19.4915 32.2442 18.784 32.2442 17.9112C32.2442 17.0383 32.9782 16.3308 33.8837 16.3308Z" fill="#1C274D"/>
</svg>
