<svg width="119" height="119" viewBox="0 0 119 119" fill="none" xmlns="http://www.w3.org/2000/svg">
<path d="M63.6511 4.15116C63.6511 1.85854 61.7926 0 59.5 0C57.2074 0 55.3488 1.85854 55.3488 4.15116V20.7558C55.3488 23.0484 57.2074 24.907 59.5 24.907C61.7926 24.907 63.6511 23.0484 63.6511 20.7558V4.15116Z" fill="#DE0000"/>
<path d="M76.1046 48.7897C73.812 48.7897 71.9535 50.6482 71.9535 52.9408C71.9535 55.2334 73.812 57.092 76.1046 57.092C80.765 57.092 84.2058 60.6256 84.0504 64.8835C83.9667 67.1746 85.7562 69.0997 88.0473 69.1834C90.3384 69.267 92.2635 67.4775 92.3472 65.1864C92.6888 55.8286 85.0599 48.7897 76.1046 48.7897Z" fill="#DE0000"/>
<path fill-rule="evenodd" clip-rule="evenodd" d="M59.3142 33.2093C51.7219 33.2093 45.7695 33.2092 40.9854 33.6001C36.114 33.9981 32.0895 34.822 28.4468 36.6781C22.4585 39.7293 17.5898 44.598 14.5385 50.5864C12.6825 54.229 11.8586 58.2535 11.4606 63.125C11.0697 67.909 11.0697 73.8614 11.0698 81.4538L11.0698 110.698H4.15116C1.85854 110.698 0 112.556 0 114.849C0 117.141 1.85854 119 4.15116 119H114.849C117.141 119 119 117.141 119 114.849C119 112.556 117.141 110.698 114.849 110.698H107.93V81.4536C107.93 73.8623 107.93 67.9086 107.539 63.125C107.141 58.2535 106.317 54.229 104.461 50.5864C101.41 44.598 96.5415 39.7293 90.5531 36.6781C86.9105 34.822 82.886 33.9981 78.0145 33.6001C73.2304 33.2092 67.278 33.2093 59.6857 33.2093H59.3142ZM63.6511 110.698H99.6279V81.6395C99.6279 73.8214 99.6246 68.2076 99.2646 63.801C98.9085 59.443 98.2243 56.6327 97.064 54.3555C94.8087 49.9293 91.2101 46.3307 86.784 44.0755C84.5067 42.9152 81.6965 42.2309 77.3384 41.8749C72.9319 41.5148 67.318 41.5116 59.5 41.5116C51.6819 41.5116 46.068 41.5148 41.6615 41.8749C37.3035 42.2309 34.4932 42.9152 32.216 44.0755C27.7898 46.3307 24.1912 49.9293 21.936 54.3555C20.7757 56.6327 20.0914 59.443 19.7353 63.801C19.3753 68.2076 19.3721 73.8214 19.3721 81.6395V110.698H55.3488V101.687C50.5119 99.9771 47.0465 95.3642 47.0465 89.9418C47.0465 83.064 52.6221 77.4883 59.5 77.4883C66.3778 77.4883 71.9535 83.064 71.9535 89.9418C71.9535 95.3642 68.488 99.9771 63.6511 101.687V110.698ZM59.5 94.093C61.7926 94.093 63.6511 92.2344 63.6511 89.9418C63.6511 87.6492 61.7926 85.7907 59.5 85.7907C57.2074 85.7907 55.3488 87.6492 55.3488 89.9418C55.3488 92.2344 57.2074 94.093 59.5 94.093Z" fill="#DE0000"/>
<path d="M112.249 23.6911L103.947 31.9934C102.326 33.6146 99.6974 33.6146 98.0763 31.9934C96.4551 30.3723 96.4551 27.7439 98.0763 26.1228L106.379 17.8205C108 16.1994 110.628 16.1994 112.249 17.8205C113.87 19.4416 113.87 22.07 112.249 23.6911Z" fill="#DE0000"/>
<path d="M12.6214 17.8205C11.0002 16.1994 8.37186 16.1994 6.75073 17.8205C5.1296 19.4416 5.1296 22.07 6.75073 23.6911L15.0531 31.9934C16.6742 33.6146 19.3025 33.6146 20.9237 31.9934C22.5448 30.3723 22.5448 27.7439 20.9237 26.1228L12.6214 17.8205Z" fill="#DE0000"/>
</svg>
