<svg width="280" height="280" viewBox="0 0 280 280" fill="none" xmlns="http://www.w3.org/2000/svg">
<g filter="url(#filter0_di_1_189)">
<circle cx="140" cy="140" r="140" fill="#FFF4E6"/>
</g>
<g filter="url(#filter1_d_1_189)">
<circle cx="140.115" cy="141.035" r="112.989" fill="#FD5349"/>
</g>
<path d="M144.828 121.608C144.828 119.069 142.769 117.01 140.23 117.01C137.691 117.01 135.632 119.069 135.632 121.608L135.632 135.401H121.839C119.3 135.401 117.241 137.46 117.241 139.999C117.241 142.538 119.3 144.597 121.839 144.597H135.632V158.39C135.632 160.929 137.691 162.987 140.23 162.987C142.769 162.987 144.828 160.929 144.828 158.39V144.597H158.621C161.16 144.597 163.218 142.538 163.218 139.999C163.218 137.46 161.16 135.401 158.621 135.401H144.828L144.828 121.608Z" fill="#FFEAD1"/>
<path fill-rule="evenodd" clip-rule="evenodd" d="M140.23 74.0984C134.483 74.0984 128.995 75.9779 120.143 79.0095L115.684 80.5361C106.603 83.6445 99.5948 86.0434 94.5779 88.0815C92.0508 89.1081 89.8781 90.1025 88.1286 91.1186C86.445 92.0963 84.756 93.3158 83.6084 94.9508C82.4742 96.5669 81.8877 98.5536 81.5191 100.466C81.136 102.454 80.9049 104.839 80.7558 107.578C80.4597 113.016 80.4597 120.465 80.4597 130.127V139.946C80.4597 177.347 108.708 195.279 125.507 202.617L125.673 202.689C127.756 203.6 129.714 204.455 131.964 205.031C134.339 205.639 136.863 205.899 140.23 205.899C143.597 205.899 146.121 205.639 148.496 205.031C150.746 204.455 152.703 203.6 154.786 202.69L154.953 202.617C171.752 195.279 200 177.347 200 139.946V130.128C200 120.465 200 113.016 199.704 107.578C199.555 104.839 199.324 102.454 198.941 100.466C198.572 98.5536 197.986 96.5669 196.851 94.9508C195.704 93.3158 194.015 92.0963 192.331 91.1186C190.582 90.1025 188.409 89.1081 185.882 88.0815C180.865 86.0434 173.857 83.6445 164.776 80.536L160.316 79.0095C151.465 75.9779 145.977 74.0984 140.23 74.0984ZM122.333 87.9792C132.231 84.5912 136.198 83.2938 140.23 83.2938C144.262 83.2938 148.229 84.5912 158.126 87.9792L161.638 89.1812C170.911 92.3552 177.673 94.6719 182.421 96.6007C184.791 97.5635 186.508 98.3703 187.713 99.0703C188.308 99.4158 188.718 99.701 188.992 99.9236C189.224 100.112 189.313 100.219 189.325 100.235C189.337 100.254 189.413 100.381 189.521 100.683C189.643 101.027 189.779 101.52 189.911 102.206C190.179 103.595 190.382 105.504 190.522 108.078C190.803 113.235 190.805 120.433 190.805 130.292V139.946C190.805 171.671 167.081 187.284 151.272 194.19C148.995 195.185 147.679 195.748 146.215 196.123C144.817 196.481 143.111 196.704 140.23 196.704C137.349 196.704 135.642 196.481 134.244 196.123C132.78 195.748 131.465 195.185 129.188 194.19C113.379 187.284 89.6551 171.671 89.6551 139.946V130.292C89.6551 120.433 89.6568 113.235 89.9376 108.078C90.0778 105.504 90.2807 103.595 90.5484 102.206C90.6807 101.52 90.8165 101.027 90.939 100.683C91.0463 100.381 91.1225 100.254 91.1343 100.235C91.147 100.219 91.2355 100.112 91.4677 99.9236C91.7415 99.701 92.1515 99.4158 92.7466 99.0703C93.9519 98.3703 95.6689 97.5635 98.0388 96.6007C102.787 94.6719 109.549 92.3552 118.822 89.1812L122.333 87.9792Z" fill="#FFEAD1"/>
<defs>
<filter id="filter0_di_1_189" x="-12.7586" y="-11.6087" width="305.517" height="305.517" filterUnits="userSpaceOnUse" color-interpolation-filters="sRGB">
<feFlood flood-opacity="0" result="BackgroundImageFix"/>
<feColorMatrix in="SourceAlpha" type="matrix" values="0 0 0 0 0 0 0 0 0 0 0 0 0 0 0 0 0 0 127 0" result="hardAlpha"/>
<feMorphology radius="2.52671" operator="dilate" in="SourceAlpha" result="effect1_dropShadow_1_189"/>
<feOffset dy="1.1485"/>
<feGaussianBlur stdDeviation="5.11084"/>
<feComposite in2="hardAlpha" operator="out"/>
<feColorMatrix type="matrix" values="0 0 0 0 0 0 0 0 0 0 0 0 0 0 0 0 0 0 0.25 0"/>
<feBlend mode="normal" in2="BackgroundImageFix" result="effect1_dropShadow_1_189"/>
<feBlend mode="normal" in="SourceGraphic" in2="effect1_dropShadow_1_189" result="shape"/>
<feColorMatrix in="SourceAlpha" type="matrix" values="0 0 0 0 0 0 0 0 0 0 0 0 0 0 0 0 0 0 127 0" result="hardAlpha"/>
<feOffset dx="0.229701" dy="0.918803"/>
<feGaussianBlur stdDeviation="0.459402"/>
<feComposite in2="hardAlpha" operator="arithmetic" k2="-1" k3="1"/>
<feColorMatrix type="matrix" values="0 0 0 0 0 0 0 0 0 0 0 0 0 0 0 0 0 0 0.25 0"/>
<feBlend mode="normal" in2="shape" result="effect2_innerShadow_1_189"/>
</filter>
<filter id="filter1_d_1_189" x="18.1379" y="19.9776" width="243.954" height="243.954" filterUnits="userSpaceOnUse" color-interpolation-filters="sRGB">
<feFlood flood-opacity="0" result="BackgroundImageFix"/>
<feColorMatrix in="SourceAlpha" type="matrix" values="0 0 0 0 0 0 0 0 0 0 0 0 0 0 0 0 0 0 127 0" result="hardAlpha"/>
<feMorphology radius="3.67521" operator="dilate" in="SourceAlpha" result="effect1_dropShadow_1_189"/>
<feOffset dy="0.918803"/>
<feGaussianBlur stdDeviation="2.65304"/>
<feComposite in2="hardAlpha" operator="out"/>
<feColorMatrix type="matrix" values="0 0 0 0 0 0 0 0 0 0 0 0 0 0 0 0 0 0 0.25 0"/>
<feBlend mode="normal" in2="BackgroundImageFix" result="effect1_dropShadow_1_189"/>
<feBlend mode="normal" in="SourceGraphic" in2="effect1_dropShadow_1_189" result="shape"/>
</filter>
</defs>
</svg>
