<svg width="12" height="12" viewBox="0 0 12 12" fill="none" xmlns="http://www.w3.org/2000/svg">
<g clip-path="url(#clip0_1_150)">
<path fill-rule="evenodd" clip-rule="evenodd" d="M5.99999 1.37483C3.44568 1.37483 1.375 3.44551 1.375 5.99983C1.375 8.55414 3.44568 10.6248 5.99999 10.6248C8.5543 10.6248 10.625 8.55414 10.625 5.99983C10.625 3.44551 8.5543 1.37483 5.99999 1.37483ZM0.624997 5.99983C0.624997 3.0313 3.03146 0.624835 5.99999 0.624835C8.96852 0.624835 11.375 3.0313 11.375 5.99983C11.375 8.96835 8.96852 11.3748 5.99999 11.3748C3.03146 11.3748 0.624997 8.96835 0.624997 5.99983ZM4.19873 7.77652C4.32206 7.61014 4.55692 7.57523 4.7233 7.69856C5.08747 7.9685 5.52704 8.12483 5.99999 8.12483C6.47294 8.12483 6.91251 7.9685 7.27668 7.69856C7.44306 7.57523 7.67792 7.61014 7.80125 7.77652C7.92458 7.9429 7.88968 8.17776 7.72329 8.30109C7.23709 8.66148 6.64248 8.87482 5.99999 8.87482C5.3575 8.87482 4.76289 8.66148 4.27669 8.30109C4.1103 8.17776 4.0754 7.9429 4.19873 7.77652Z" fill="#FFF9F2"/>
<path d="M7.99999 5.24983C7.99999 5.66404 7.77613 5.99983 7.49999 5.99983C7.22385 5.99983 6.99999 5.66404 6.99999 5.24983C6.99999 4.83562 7.22385 4.49983 7.49999 4.49983C7.77613 4.49983 7.99999 4.83562 7.99999 5.24983Z" fill="#FFF9F2"/>
<path d="M4.99999 5.24983C4.99999 5.66404 4.77613 5.99983 4.49999 5.99983C4.22385 5.99983 3.99999 5.66404 3.99999 5.24983C3.99999 4.83562 4.22385 4.49983 4.49999 4.49983C4.77613 4.49983 4.99999 4.83562 4.99999 5.24983Z" fill="#FFF9F2"/>
</g>
<defs>
<clipPath id="clip0_1_150">
<rect width="11.3174" height="11.3174" fill="white" transform="scale(1.06031)"/>
</clipPath>
</defs>
</svg>
