<svg width="35" height="35" viewBox="0 0 35 35" fill="none" xmlns="http://www.w3.org/2000/svg">
<path fill-rule="evenodd" clip-rule="evenodd" d="M4.27406 16.334C4.37858 9.0998 10.3195 3.28151 17.615 3.28151C22.4398 3.28151 26.6686 5.82525 29.0112 9.63578C29.3276 10.1504 29.1669 10.824 28.6523 11.1404C28.1377 11.4567 27.4641 11.296 27.1477 10.7814C25.1893 7.59592 21.6539 5.46901 17.615 5.46901C11.5128 5.46901 6.56794 10.3219 6.4619 16.3309L7.04578 15.7516C7.47459 15.3262 8.16711 15.3289 8.59256 15.7577C9.01802 16.1865 9.0153 16.879 8.58649 17.3045L6.13676 19.735C5.71033 20.1581 5.02249 20.1581 4.59606 19.735L2.14633 17.3045C1.71752 16.879 1.7148 16.1865 2.14026 15.7577C2.56571 15.3289 3.25823 15.3262 3.68704 15.7516L4.27406 16.334ZM28.8552 15.264C29.2813 14.8429 29.9669 14.8429 30.393 15.264L32.8521 17.6946C33.2817 18.1192 33.2857 18.8117 32.8611 19.2414C32.4364 19.671 31.7439 19.675 31.3143 19.2504L30.7165 18.6595C30.6154 25.9008 24.6483 31.719 17.3286 31.719C12.4889 31.719 8.24515 29.1771 5.89343 25.3663C5.57619 24.8523 5.73575 24.1784 6.2498 23.8612C6.76385 23.5439 7.43775 23.7035 7.75498 24.2175C9.72068 27.4028 13.2708 29.5315 17.3286 29.5315C23.4627 29.5315 28.4261 24.671 28.5287 18.6624L27.9339 19.2504C27.5043 19.675 26.8117 19.671 26.3871 19.2414C25.9625 18.8117 25.9665 18.1192 26.3961 17.6946L28.8552 15.264Z" fill="#1C274C"/>
</svg>
