<svg width="12" height="12" viewBox="0 0 12 12" fill="none" xmlns="http://www.w3.org/2000/svg">
<path fill-rule="evenodd" clip-rule="evenodd" d="M3.625 2.99983C3.625 1.68816 4.68832 0.624835 6 0.624835C7.31167 0.624835 8.37499 1.68816 8.37499 2.99983C8.37499 4.31151 7.31167 5.37483 6 5.37483C4.68832 5.37483 3.625 4.31151 3.625 2.99983ZM6 1.37483C5.10253 1.37483 4.375 2.10237 4.375 2.99983C4.375 3.89729 5.10253 4.62483 6 4.62483C6.89746 4.62483 7.62499 3.89729 7.62499 2.99983C7.62499 2.10237 6.89746 1.37483 6 1.37483Z" fill="#FFF9F2"/>
<path d="M8.87499 8.33315C8.87499 8.12605 8.7071 7.95815 8.49999 7.95815C8.29289 7.95815 8.12499 8.12605 8.12499 8.33315V8.62482H7.83325C7.62614 8.62482 7.45825 8.79272 7.45825 8.99982C7.45825 9.20693 7.62614 9.37482 7.83325 9.37482H8.12499V9.66648C8.12499 9.87359 8.29289 10.0415 8.49999 10.0415C8.7071 10.0415 8.87499 9.87359 8.87499 9.66648V9.37482H9.16658C9.37368 9.37482 9.54158 9.20693 9.54158 8.99982C9.54158 8.79272 9.37368 8.62482 9.16658 8.62482H8.87499V8.33315Z" fill="#FFF9F2"/>
<path fill-rule="evenodd" clip-rule="evenodd" d="M8.40587 6.62666C8.43709 6.62544 8.46847 6.62483 8.49999 6.62483C9.81167 6.62483 10.875 7.68815 10.875 8.99982C10.875 10.3115 9.81167 11.3748 8.49999 11.3748C7.91021 11.3748 7.37064 11.1598 6.95536 10.804C6.64954 10.8503 6.32936 10.8748 6 10.8748C4.98033 10.8748 4.03876 10.6394 3.33907 10.2396C2.65 9.84587 2.125 9.24476 2.125 8.49982C2.125 7.75489 2.65 7.15378 3.33907 6.76002C4.03876 6.3602 4.98033 6.12483 6 6.12483C6.90224 6.12483 7.74126 6.30901 8.40587 6.62666ZM8.49999 7.37483C7.60253 7.37483 6.875 8.10236 6.875 8.99982C6.875 9.89729 7.60253 10.6248 8.49999 10.6248C9.39746 10.6248 10.125 9.89729 10.125 8.99982C10.125 8.10236 9.39746 7.37483 8.49999 7.37483ZM6.40045 10.111C6.2246 9.77947 6.125 9.40128 6.125 8.99982C6.125 8.16427 6.55648 7.42949 7.20878 7.00616C6.83835 6.92204 6.43055 6.87483 6 6.87483C5.08667 6.87483 4.27824 7.08717 3.71118 7.4112C3.1335 7.7413 2.875 8.14019 2.875 8.49982C2.875 8.85946 3.1335 9.25835 3.71118 9.58845C4.27824 9.91248 5.08667 10.1248 6 10.1248C6.13574 10.1248 6.26939 10.1201 6.40045 10.111Z" fill="#FFF9F2"/>
</svg>
