<svg width="45" height="45" viewBox="0 0 45 45" fill="none" xmlns="http://www.w3.org/2000/svg">
<path d="M22.5 21.9768C23.367 21.9768 24.0698 22.6796 24.0698 23.5465V25.1163H25.6396C26.5065 25.1163 27.2093 25.8191 27.2093 26.6861C27.2093 27.553 26.5065 28.2558 25.6396 28.2558H24.0698V29.8256C24.0698 30.6926 23.367 31.3954 22.5 31.3954C21.6331 31.3954 20.9302 30.6926 20.9302 29.8256V28.2558H19.3605C18.4935 28.2558 17.7907 27.553 17.7907 26.6861C17.7907 25.8191 18.4935 25.1163 19.3605 25.1163H20.9302V23.5465C20.9302 22.6796 21.6331 21.9768 22.5 21.9768Z" fill="#1C274C"/>
<path fill-rule="evenodd" clip-rule="evenodd" d="M22.5 16.7442C17.0093 16.7442 12.5581 21.1953 12.5581 26.6861C12.5581 32.1768 17.0093 36.6279 22.5 36.6279C27.9908 36.6279 32.4419 32.1768 32.4419 26.6861C32.4419 21.1953 27.9908 16.7442 22.5 16.7442ZM15.6977 26.6861C15.6977 22.9292 18.7432 19.8837 22.5 19.8837C26.2568 19.8837 29.3023 22.9292 29.3023 26.6861C29.3023 30.4429 26.2568 33.4884 22.5 33.4884C18.7432 33.4884 15.6977 30.4429 15.6977 26.6861Z" fill="#1C274C"/>
<path fill-rule="evenodd" clip-rule="evenodd" d="M22.3912 2.23342e-06C20.5107 -5.72752e-05 18.9425 -0.000106899 17.6976 0.167263C16.3836 0.343924 15.1973 0.732537 14.244 1.68585C13.2907 2.63916 12.9021 3.82548 12.7254 5.13947C12.6017 6.05957 12.5695 7.15624 12.5611 8.42511C11.2037 8.46868 9.99367 8.54804 8.91833 8.69262C6.46442 9.02254 4.47825 9.71766 2.91191 11.284C1.34557 12.8503 0.650436 14.8365 0.320517 17.2904C-5.72621e-05 19.6748 -3.16647e-05 22.7215 6.46737e-07 26.568V26.8041C-3.16647e-05 30.6506 -5.72309e-05 33.6973 0.320517 36.0817C0.650436 38.5356 1.34557 40.5218 2.91191 42.0881C4.47825 43.6545 6.46442 44.3496 8.91833 44.6795C11.3027 45.0001 14.3494 45.0001 18.1958 45H26.8041C30.6506 45.0001 33.6973 45.0001 36.0817 44.6795C38.5356 44.3496 40.5218 43.6545 42.0881 42.0881C43.6545 40.5218 44.3496 38.5356 44.6795 36.0817C45.0001 33.6973 45.0001 30.6507 45 26.8042V26.568C45.0001 22.7216 45.0001 19.6748 44.6795 17.2904C44.3496 14.8365 43.6545 12.8503 42.0881 11.284C40.5218 9.71766 38.5356 9.02254 36.0817 8.69262C35.0064 8.54804 33.7963 8.46868 32.439 8.42511C32.4306 7.15624 32.3983 6.05957 32.2746 5.13947C32.098 3.82548 31.7094 2.63916 30.756 1.68585C29.8027 0.732537 28.6164 0.343924 27.3024 0.167263C26.0575 -0.000106899 24.4894 -5.72752e-05 22.6089 2.23342e-06H22.3912ZM29.2986 8.37582C29.2898 7.18212 29.2604 6.2817 29.1631 5.55781C29.0332 4.59196 28.8088 4.17859 28.5361 3.90583C28.2633 3.63308 27.8499 3.40866 26.8841 3.2788C25.8731 3.14288 24.5177 3.13954 22.5 3.13954C20.4823 3.13954 19.127 3.14288 18.1159 3.2788C17.1501 3.40866 16.7367 3.63308 16.464 3.90583C16.1912 4.17859 15.9668 4.59196 15.8369 5.55781C15.7396 6.2817 15.7103 7.18212 15.7015 8.37582C16.4929 8.37209 17.3238 8.37209 18.1959 8.3721H26.8041C27.6762 8.37209 28.5071 8.37209 29.2986 8.37582ZM5.13189 13.504C6.01768 12.6182 7.2309 12.0873 9.33667 11.8042C11.4876 11.515 14.3229 11.5116 18.314 11.5116H26.6861C30.6771 11.5116 33.5124 11.515 35.6634 11.8042C37.7691 12.0873 38.9823 12.6182 39.8681 13.504C40.7539 14.3898 41.2849 15.603 41.568 17.7088C41.8572 19.8597 41.8605 22.695 41.8605 26.6861C41.8605 30.6771 41.8572 33.5124 41.568 35.6634C41.2849 37.7691 40.7539 38.9823 39.8681 39.8681C38.9823 40.7539 37.7691 41.2849 35.6634 41.568C33.5124 41.8572 30.6771 41.8605 26.6861 41.8605H18.314C14.3229 41.8605 11.4876 41.8572 9.33667 41.568C7.2309 41.2849 6.01768 40.7539 5.13189 39.8681C4.24611 38.9823 3.71517 37.7691 3.43206 35.6634C3.14287 33.5124 3.13954 30.6771 3.13954 26.6861C3.13954 22.695 3.14287 19.8597 3.43206 17.7088C3.71517 15.603 4.24611 14.3898 5.13189 13.504Z" fill="#1C274C"/>
</svg>
