<svg width="26" height="23" viewBox="0 0 26 23" fill="none" xmlns="http://www.w3.org/2000/svg">
<path fill-rule="evenodd" clip-rule="evenodd" d="M9.93829 23H15.6173C19.6053 23 21.5993 23 23.0317 22.0603C23.6518 21.6536 24.1842 21.1308 24.5985 20.522C25.5556 19.1157 25.5556 17.1579 25.5556 13.2424C25.5556 9.32697 25.5556 7.36923 24.5985 5.96289C24.1842 5.35407 23.6518 4.83134 23.0317 4.42454C22.1113 3.82073 20.959 3.60491 19.1948 3.52777C18.3529 3.52777 17.6281 2.90143 17.463 2.09091C17.2153 0.875136 16.1281 0 14.8653 0H10.6903C9.42753 0 8.34026 0.875136 8.0926 2.09091C7.9275 2.90143 7.20266 3.52777 6.36078 3.52777C4.5966 3.60491 3.44432 3.82073 2.52393 4.42454C1.90383 4.83134 1.37142 5.35407 0.957088 5.96289C0 7.36923 0 9.32697 0 13.2424C0 17.1579 0 19.1157 0.957088 20.522C1.37142 21.1308 1.90383 21.6536 2.52393 22.0603C3.95631 23 5.9503 23 9.93829 23ZM12.7778 8.01516C9.83739 8.01516 7.45371 10.3555 7.45371 13.2424C7.45371 16.1294 9.83739 18.4697 12.7778 18.4697C15.7182 18.4697 18.1019 16.1294 18.1019 13.2424C18.1019 10.3555 15.7182 8.01516 12.7778 8.01516ZM12.7778 10.1061C11.0136 10.1061 9.58335 11.5103 9.58335 13.2424C9.58335 14.9746 11.0136 16.3788 12.7778 16.3788C14.542 16.3788 15.9722 14.9746 15.9722 13.2424C15.9722 11.5103 14.542 10.1061 12.7778 10.1061ZM18.8118 9.06062C18.8118 8.48323 19.2885 8.01516 19.8766 8.01516H21.2963C21.8844 8.01516 22.3611 8.48323 22.3611 9.06062C22.3611 9.63801 21.8844 10.1061 21.2963 10.1061H19.8766C19.2885 10.1061 18.8118 9.63801 18.8118 9.06062Z" fill="white"/>
</svg>
