<svg width="47" height="40" viewBox="0 0 47 40" fill="none" xmlns="http://www.w3.org/2000/svg">
<path d="M38.4047 12.6555C39.2831 12.4438 40.1733 12.9586 40.3929 13.8054C40.6125 14.6521 40.0784 15.5102 39.2 15.7219L30.4558 17.8291C29.5773 18.0408 28.6872 17.5259 28.4676 16.6792C28.2479 15.8324 28.782 14.9743 29.6605 14.7627L38.4047 12.6555Z" fill="#1C274D"/>
<path d="M38.4047 21.0842C39.2831 20.8725 40.1733 21.3874 40.3929 22.2341C40.6125 23.0809 40.0784 23.939 39.2 24.1507L30.4558 26.2579C29.5773 26.4695 28.6872 25.9547 28.4676 25.1079C28.2479 24.2612 28.782 23.4031 29.6605 23.1914L38.4047 21.0842Z" fill="#1C274D"/>
<path d="M6.60709 13.8054C6.8267 12.9586 7.71686 12.4438 8.59532 12.6555L17.3395 14.7627C18.218 14.9743 18.7521 15.8324 18.5324 16.6792C18.3128 17.5259 17.4227 18.0408 16.5442 17.8291L7.80003 15.7219C6.92157 15.5102 6.38748 14.6521 6.60709 13.8054Z" fill="#1C274D"/>
<path d="M6.60709 22.2341C6.8267 21.3874 7.71686 20.8725 8.59532 21.0842L17.3395 23.1914C18.218 23.4031 18.7521 24.2612 18.5324 25.1079C18.3128 25.9547 17.4227 26.4695 16.5442 26.2579L7.80003 24.1507C6.92157 23.939 6.38748 23.0809 6.60709 22.2341Z" fill="#1C274D"/>
<path fill-rule="evenodd" clip-rule="evenodd" d="M47 5.61911C47 2.53563 44.4526 -0.108771 41.1105 0.00344587C38.6221 0.0869999 35.3693 0.336525 32.867 1.05862C30.6918 1.68633 28.2451 2.91239 26.3378 3.9764C24.5495 4.97408 22.3232 5.02384 20.5113 4.10034C18.3352 2.99115 15.4721 1.67638 12.9881 1.04454C10.8877 0.510281 8.23083 0.253666 6.07373 0.125873C2.66735 -0.0759324 0 2.59623 0 5.75525V29.2416C0 32.4787 2.71897 35.006 5.94176 35.2003C8.03765 35.3266 10.3961 35.5696 12.1514 36.0161C14.3212 36.568 17.0044 37.7952 19.1708 38.9084C21.8669 40.2937 25.1331 40.2937 27.8292 38.9084C29.9956 37.7952 32.6788 36.568 34.8485 36.0161C36.6039 35.5696 38.9623 35.3266 41.0582 35.2003C44.281 35.006 47 32.4787 47 29.2416V5.61911ZM41.2246 3.16232C42.5686 3.1172 43.7209 4.18287 43.7209 5.61911V29.2416C43.7209 30.6866 42.4786 31.9477 40.8535 32.0456C38.711 32.1748 36.0896 32.4315 34.0119 32.96C31.4535 33.6107 28.4902 34.9869 26.2867 36.1191C25.919 36.3081 25.5341 36.4569 25.1395 36.5656V7.74493C26.1283 7.55414 27.0897 7.20895 27.9803 6.71208C29.8395 5.67493 32.0144 4.60406 33.8074 4.08663C35.8823 3.48787 38.7788 3.24445 41.2246 3.16232ZM21.8605 7.81435C20.8658 7.66525 19.8908 7.35955 18.9785 6.89455C16.8432 5.80616 14.2547 4.6357 12.1514 4.10072C10.3759 3.64909 7.98427 3.40582 5.87258 3.28071C4.48671 3.19861 3.27907 4.28615 3.27907 5.75525V29.2416C3.27907 30.6866 4.52142 31.9477 6.14645 32.0456C8.28896 32.1748 10.9104 32.4315 12.9881 32.96C15.5465 33.6107 18.5098 34.9869 20.7133 36.1191C21.081 36.3081 21.4659 36.4569 21.8605 36.5656V7.81435Z" fill="#1C274D"/>
</svg>
